<?xml version="1.0" encoding="UTF-8" standalone="no"?>
<svg
   xmlns:dc="http://purl.org/dc/elements/1.1/"
   xmlns:cc="http://creativecommons.org/ns#"
   xmlns:rdf="http://www.w3.org/1999/02/22-rdf-syntax-ns#"
   xmlns:svg="http://www.w3.org/2000/svg"
   xmlns="http://www.w3.org/2000/svg"
   xmlns:sodipodi="http://sodipodi.sourceforge.net/DTD/sodipodi-0.dtd"
   xmlns:inkscape="http://www.inkscape.org/namespaces/inkscape"
   width="100px"
   height="100px"
   viewBox="0 0 100 100"
   version="1.1"
   id="svg697"
   sodipodi:docname="icon.svg"
   inkscape:version="0.92.4 (5da689c313, 2019-01-14)">
  <metadata
     id="metadata701">
    <rdf:RDF>
      <cc:Work
         rdf:about="">
        <dc:format>image/svg+xml</dc:format>
        <dc:type
           rdf:resource="http://purl.org/dc/dcmitype/StillImage" />
        <dc:title>world</dc:title>
      </cc:Work>
    </rdf:RDF>
  </metadata>
  <sodipodi:namedview
     pagecolor="#ffffff"
     bordercolor="#666666"
     borderopacity="1"
     objecttolerance="10"
     gridtolerance="10"
     guidetolerance="10"
     inkscape:pageopacity="0"
     inkscape:pageshadow="2"
     inkscape:window-width="1920"
     inkscape:window-height="1025"
     id="namedview699"
     showgrid="false"
     inkscape:zoom="8.56"
     inkscape:cx="50"
     inkscape:cy="50"
     inkscape:window-x="-8"
     inkscape:window-y="-8"
     inkscape:window-maximized="1"
     inkscape:current-layer="svg697" />
  <!-- Generator: Sketch 42 (36781) - http://www.bohemiancoding.com/sketch -->
  <title
     id="title688">world</title>
  <desc
     id="desc690">Created with Sketch.</desc>
  <defs
     id="defs692" />
  <g
     id="Page-1"
     stroke="none"
     stroke-width="1"
     fill="none"
     fill-rule="evenodd">
    <g
       id="world"
       fill-rule="nonzero"
       fill="#000000">
      <path
         d="M49.8549995,7.14249992 C73.5145305,7.14249992 92.7099991,26.3379685 92.7099991,49.9974995 C92.7099991,73.6570305 73.5145305,92.852499 49.8549995,92.852499 C26.1954685,92.852499 7,73.6570305 7,49.9974995 C7,26.3379685 26.1954685,7.14249992 49.8549995,7.14249992 Z M65.1444134,36.2147066 C64.6980072,36.5495113 64.4190033,37.1633199 63.8609955,37.2749215 C64.1399994,37.2191207 64.4190033,36.2147066 64.5864056,35.9915035 C64.9212103,35.6008981 65.3676166,35.3776949 65.8140228,35.1544918 C66.7626361,34.7638863 67.7112494,34.6522848 68.7156634,34.4848824 C69.6642767,34.2616793 70.8360931,34.2616793 71.5615032,35.098691 C71.3941009,34.9312887 72.7333196,33.7594723 72.900722,33.7036715 C73.402929,33.4246676 74.2399407,33.5362692 74.5747454,33.0340621 C74.6863469,32.8666598 74.6863469,31.806445 74.6863469,31.806445 C73.7377337,31.9180465 73.402929,31.025234 73.3471282,30.2440231 C73.3471282,30.2998239 73.2355266,30.4672262 73.0123235,30.6904294 C73.0681243,29.8534176 72.0079095,30.4672262 71.617304,30.3556247 C70.333886,30.02082 70.5012884,29.1280075 70.1106829,28.1793942 C69.8874798,27.6771872 69.2736712,27.5097849 69.0504681,27.0075778 C68.827265,26.6727732 68.7156634,25.947363 68.2134564,25.8915622 C67.8786517,25.8357614 67.2648431,27.0633786 67.1532415,27.0075778 C66.6510345,26.7285739 66.4278314,27.1191794 66.0372259,27.3423825 C65.7024212,27.5655856 65.4234173,27.4539841 65.0886127,27.6213864 C66.0930267,27.2865817 64.6422064,26.7285739 64.1399994,26.8401755 C64.9212103,26.6169724 64.5306049,25.7799607 64.0841986,25.3893552 L64.3632025,25.3893552 C64.251601,24.8871482 62.6891791,24.4407419 62.1869721,24.1059372 C61.684765,23.7711326 59.0063276,23.2131248 58.4483198,23.5479294 C57.7787104,23.9385349 58.6157221,25.0545505 58.6157221,25.6125583 C58.6715229,26.2821677 57.9461127,26.44957 57.9461127,27.0075778 C57.9461127,27.9561911 59.7317377,27.7887888 59.2853315,29.0722067 C59.0063276,29.8534176 57.9461127,30.02082 57.4997065,30.6346286 C57.0533002,31.1926364 57.5555073,32.1970504 58.0019135,32.5876559 C58.4483198,32.9224606 57.2207026,33.4804684 57.0533002,33.59207 C56.104687,34.0384762 55.3792768,32.6434567 55.1560737,31.806445 C54.9886714,31.1926364 54.9328706,30.4672262 54.2632612,30.1324216 C53.9284565,30.02082 52.8682417,29.8534176 52.6450386,30.1882223 C52.3102339,29.3512106 51.1384175,29.0164059 50.3572066,28.737402 C49.241191,28.3467966 48.2925777,28.3467966 47.1207613,28.5141989 C47.5113668,28.4583981 47.0091597,26.7285739 46.0605465,27.0075778 C46.3395504,26.44957 46.2279488,25.8357614 46.3395504,25.2777536 C46.4511519,24.8313474 46.674355,24.3849411 47.0091597,23.9943357 C47.1207613,23.7711326 48.3483785,22.4877146 47.957773,22.4319138 C48.9063863,22.5435154 49.9666011,22.5993162 50.747812,21.8181052 C51.2500191,21.3158982 51.4732222,20.4788865 51.9754292,19.9208787 C52.7008394,19.083867 53.5936518,20.1440818 54.3748628,20.1998826 C55.4908784,20.2556834 55.4350776,19.0280662 54.821269,18.4700584 C55.5466792,18.5258592 54.9328706,17.1866404 54.5422651,17.0192381 C54.0400581,16.8518358 52.1428315,17.3540428 53.1472456,17.7446482 C52.9240425,17.6330467 51.5848237,20.4230857 50.8036128,19.0280662 C50.5804097,18.7490623 50.4688081,17.5772459 49.9666011,17.5214451 C49.5201949,17.5214451 49.241191,18.0236522 49.0737886,18.3584568 C49.3527925,17.6330467 47.5113668,17.1308397 47.1207613,17.0750389 C47.957773,16.5170311 47.2881636,15.9032225 46.674355,15.5684178 C46.2279488,15.2894139 44.8329293,15.0662108 44.4423238,15.512617 C43.382109,16.796035 45.5583394,16.9634373 46.1163472,17.298242 C46.2837496,17.4098436 46.9533589,17.800449 46.5627535,18.0794529 C46.2279488,18.2468553 45.2235347,18.5258592 45.1119332,18.7490623 C44.7771285,19.2512693 45.5025387,19.8092771 45.0003316,20.3114842 C44.4981246,19.8092771 44.4981246,18.9722654 44.1075191,18.4142576 C44.6097262,19.0280662 42.098691,18.6932615 42.1544918,18.6932615 C41.3174801,18.6932615 39.9782614,19.2512693 39.3644528,18.4142576 C39.2528512,18.1910545 39.2528512,16.9076365 39.5876559,17.1866404 C39.0854489,16.796035 38.7506442,16.4054295 38.4158395,16.1822264 C36.5744137,16.796035 34.8445895,17.5772459 33.1705661,18.4700584 C33.3937692,18.5258592 33.5611716,18.5258592 33.8401755,18.4142576 C34.2865817,18.2468553 34.6771872,17.9678514 35.1235934,17.7446482 C35.6816013,17.5214451 36.8534176,16.8518358 37.4672262,17.3540428 C37.523027,17.2424412 37.6904294,17.1308397 37.7462301,17.0750389 C38.1368356,17.5214451 38.5274411,17.9678514 38.8622458,18.4700584 C38.4158395,18.2468553 37.6904294,18.3584568 37.1882223,18.4142576 C36.7976169,18.5258592 36.1280075,18.6374607 35.9606052,19.083867 C36.1280075,19.3628709 36.3512106,19.8092771 36.2396091,20.088281 C35.5141989,19.586074 34.9561911,18.7490623 33.9517771,18.6374607 C33.5053708,18.6374607 33.0589646,18.6374607 32.7241599,18.6932615 C27.3672849,21.6507029 22.8474217,25.947363 19.6109764,31.0810348 C19.8341796,31.3042379 20.0573827,31.4716403 20.2805858,31.5274411 C20.8385936,31.6948434 20.2805858,33.3130661 21.3408006,32.4760543 C21.6756053,32.7550582 21.7314061,33.1456637 21.508203,33.5362692 C21.5640038,33.4804684 23.796035,34.9312887 23.9634373,35.0428903 C24.3540428,35.3776949 24.9678514,35.7683004 25.1352537,36.2147066 C25.2468553,36.6053121 24.9120506,37.0517184 24.5772459,37.2191207 C24.5214451,37.1075191 23.6844334,36.2705074 23.5728319,36.4937105 C23.4054295,36.7727145 23.5728319,38.2793355 24.1866404,38.2235347 C23.293828,38.2793355 23.6844334,41.7389839 23.4612303,42.4085933 C23.4612303,42.4643941 23.5728319,42.4643941 23.5728319,42.4643941 C23.4054295,43.1340034 23.9634373,45.7566401 25.0794529,45.4776362 C24.3540428,45.6450386 26.3628709,48.2118745 26.6418748,48.3792768 C27.3672849,48.8814839 28.2042966,49.2162885 28.7065037,49.9416987 C29.2645115,50.7229096 29.2645115,51.894726 30.0457224,52.5085346 C29.8225193,53.178144 31.2175388,53.9593549 31.161738,54.9079682 C31.0501365,54.9637689 30.9943357,54.9637689 30.8827341,55.0195697 C31.161738,55.8007807 32.2219529,55.8007807 32.6125583,56.5261908 C32.8357614,56.972597 32.6125583,58.0328119 33.3379685,57.8096088 C33.44957,56.5819916 32.6125583,55.3543744 31.9987497,54.3499604 C31.663945,53.7919526 31.3291404,53.2897455 31.0501365,52.7317377 C30.7711326,52.2295307 30.7153318,51.6157221 30.4921287,51.0577143 C30.7153318,51.1135151 31.942949,51.5599213 31.8313474,51.7273237 C31.3849411,52.8433393 33.6169724,54.7963666 34.230781,55.5217768 C34.3981833,55.6891791 35.6816013,57.3632025 35.0119919,57.3632025 C35.737402,57.3632025 36.7418161,58.4792181 37.0766208,59.0372259 C37.5788278,59.8742376 37.4672262,60.9344525 37.8020309,61.827265 C38.1368356,62.9432806 39.6992575,63.4454876 40.59207,63.9476946 C41.3732809,64.3383001 42.0428903,64.8963079 42.8241012,65.1753118 C43.9959176,65.621718 44.2749215,65.2311126 45.2793355,65.0637102 C46.7301558,64.8405071 46.8975582,66.4587298 48.0693746,67.0725383 C48.7947847,67.4631438 50.3572066,68.0211516 51.1384175,67.6863469 C50.8036128,67.7979485 52.3102339,70.0857805 52.4218355,70.2531828 C52.9240425,70.9227922 53.8726557,71.2575969 54.4306636,71.9272063 C54.5980659,71.8156047 54.7654682,71.6482024 54.821269,71.4249992 C54.5980659,72.0388078 55.6582807,73.2106242 56.2162885,73.0990227 C56.8300971,72.9874211 56.9974995,71.7598039 56.9974995,71.3133977 C55.8814839,71.8714055 54.8770698,71.4249992 54.2632612,70.3089836 C54.1516597,70.0299797 53.2588472,68.4675579 54.0400581,68.4675579 C55.1002729,68.4675579 54.3748628,67.6305462 54.2632612,66.8493352 C54.1516597,66.0681243 53.3704487,65.5659173 52.9798433,64.8963079 C52.6450386,65.5659173 51.529023,65.3985149 51.1942183,64.8405071 C51.1942183,65.0079095 51.0268159,65.2869134 51.0268159,65.5101165 C50.747812,65.5101165 50.4688081,65.5659173 50.1898042,65.4543157 C50.3014058,64.7847063 50.3572066,63.9476946 50.5246089,63.2222845 C50.8036128,62.2178704 52.6450386,60.2648431 50.245605,60.3764447 C49.4085933,60.4322454 49.0737886,60.7670501 48.7947847,61.4924603 C48.5157808,62.1620696 48.6273824,62.7758782 47.8461714,63.1106829 C47.3439644,63.333886 45.669941,63.2222845 45.167734,62.9432806 C44.1075191,62.329472 43.382109,60.3764447 43.382109,59.2604291 C43.3263082,57.753808 44.1075191,56.4145892 43.382109,55.0195697 C43.7169137,54.7405658 44.0517184,54.182558 44.4423238,53.9035541 C44.7771285,53.680351 45.167734,54.0709565 45.3351363,53.4013471 C45.167734,53.2897455 44.9445308,53.0665424 44.8887301,53.0665424 C45.7257418,53.4571479 47.2881636,52.5085346 48.0135738,53.0665424 C48.45998,53.4013471 48.9621871,53.5129486 49.241191,52.9549408 C49.2969917,52.7875385 48.8505855,52.1179291 49.0737886,51.6715229 C49.241191,52.6201362 49.8549995,52.7875385 50.6920113,52.1737299 C51.0268159,52.5085346 51.9196284,52.396933 52.533437,52.7317377 C53.1472456,53.1223432 53.2588472,53.7361518 53.9842573,52.8991401 C54.4306636,53.5687494 54.4864643,53.5687494 54.6538667,54.2383588 C54.821269,54.8521674 55.1560737,56.4145892 55.7140815,56.6935931 C56.8858979,57.4190033 56.606894,55.465976 56.4952924,54.7963666 C56.4394917,54.7405658 56.4394917,52.8991401 56.3836909,52.8991401 C54.5980659,52.5085346 55.2676753,51.1135151 56.2720893,50.1649018 C56.4394917,50.0533002 57.7229096,49.606894 58.2809174,49.1604878 C58.7831244,48.7140815 59.396933,47.9328706 59.1179291,47.2074604 C59.396933,47.2074604 59.6201362,46.9842573 59.7317377,46.7052534 C59.5643354,46.6494526 58.894726,46.0914448 58.7831244,46.1472456 C59.1737299,45.9240425 59.1179291,45.5892378 58.894726,45.2544331 C59.4527338,44.9196284 59.1737299,44.3058198 59.7317377,44.0826167 C60.3455463,44.9196284 61.5731635,43.9710152 60.9593549,43.3014058 C61.5173627,42.5201949 62.8007807,42.9108003 63.1355853,42.1853902 C63.972597,42.4085933 63.3587885,41.3483785 63.8051947,40.7345699 C64.1958002,40.2323629 64.8654095,40.2323629 65.3676166,39.9533589 C65.3676166,40.0091597 66.7626361,39.172148 66.3162298,39.1163472 C67.2648431,39.2279488 69.1620696,38.2235347 67.7112494,37.386523 C67.9344525,36.884316 67.2090423,36.6611129 66.7068353,36.5495113 C67.0974408,36.4379098 67.5996478,36.6611129 67.9344525,36.4379098 C68.6598626,35.9357027 68.1576556,35.7124996 67.543847,35.5450973 C66.7626361,35.3218942 65.758222,35.8241012 65.1444134,36.2147066 Z M56.0488862,85.1519913 C63.6935931,83.8127725 70.5012884,80.0183195 75.6349602,74.6056437 C75.3001555,74.2708391 74.6863469,74.3824406 74.2399407,74.1592375 C73.7935344,73.9918351 73.4587298,73.8244328 72.900722,73.7128312 C73.0123235,72.5968156 71.7847063,72.2062102 71.0034954,71.6482024 C70.2780853,71.0901946 69.831679,70.476386 68.7714642,70.6995891 C68.6598626,70.7553899 67.543847,71.1459953 67.7670501,71.3691985 C67.04164,70.7553899 66.7068353,70.4205852 65.758222,70.1415813 C64.8654095,69.8625774 64.251601,68.7465618 63.3587885,69.7509758 C62.9123822,70.1973821 63.1355853,70.8669914 62.9123822,71.3133977 C62.1869721,70.6995891 63.5819916,69.9741789 63.0239838,69.3045696 C62.3543744,68.5233586 61.182558,69.8067766 60.6245502,70.1415813 C60.2897455,70.4205852 59.8991401,70.5321867 59.6759369,70.8669914 C59.396933,71.2575969 59.2853315,71.7598039 59.0621284,72.1504094 C58.894726,71.7040031 57.9461127,71.8156047 57.890312,71.4808 C58.1135151,72.8200188 58.1135151,74.2150383 58.392519,75.554257 C58.5599213,76.3354679 58.392519,77.6188859 57.7229096,78.2326945 C57.0533002,78.8465031 56.2162885,79.5161124 56.104687,80.4647257 C55.9930854,81.1343351 56.1604878,81.7481437 56.7742963,81.915546 C56.8300971,82.7525577 55.8814839,83.3663663 55.9372846,84.2591788 C55.9372846,84.3149796 55.9930854,84.8729874 56.0488862,85.1519913 Z"
         id="Shape" />
    </g>
  </g>
  <path
     style="fill:#bc4f3e;fill-opacity:1;stroke-width:0.11682243"
     d="M 46.203271,92.653694 C 42.112402,92.265491 38.301231,91.390645 34.696262,90.012285 20.616199,84.628775 10.361257,72.283004 7.7207109,57.536821 7.1128119,54.141998 6.9015344,49.161558 7.2310048,45.992991 8.2899889,35.808578 12.513959,26.862808 19.618291,19.758478 26.717485,12.659283 35.706083,8.4156187 45.852804,7.3727344 c 1.910053,-0.1963161 6.345514,-0.1675185 8.417587,0.054652 7.097204,0.7609714 13.697065,3.1663126 19.561385,7.1292116 3.92534,2.652605 8.07578,6.697319 10.812485,10.537054 5.251369,7.367939 8.000498,15.95635 7.99472,24.975883 -0.0073,11.33104 -4.453333,22.042291 -12.494886,30.102028 -6.89067,6.906251 -15.196041,10.980094 -25.120731,12.32189 -1.626143,0.219852 -7.136886,0.319969 -8.820093,0.160241 z m 11.304554,-7.751252 c 6.299469,-1.365603 12.434259,-4.656545 17.023093,-9.131853 1.408571,-1.373725 1.456777,-1.180792 -0.439431,-1.758726 -1.049809,-0.319963 -1.087266,-0.343376 -1.196118,-0.747619 -0.124682,-0.463036 -0.385166,-0.737319 -1.166397,-1.228184 -0.289136,-0.181671 -0.74704,-0.505636 -1.017564,-0.719921 -0.557907,-0.441924 -1.185403,-0.732567 -1.577983,-0.730885 -0.146632,5.84e-4 -0.544284,0.130417 -0.883673,0.28842 l -0.61707,0.287278 -0.516802,-0.394484 c -0.284242,-0.216967 -0.716257,-0.458414 -0.960033,-0.53655 -0.243777,-0.07814 -0.739242,-0.319543 -1.101035,-0.536459 -0.75455,-0.452398 -1.115985,-0.490572 -1.533713,-0.161987 l -0.295458,0.232407 -0.07403,-0.29495 c -0.171219,-0.682194 -0.960588,-0.577652 -2.106003,0.278914 -0.324502,0.24267 -0.77511,0.576172 -1.001352,0.741118 -0.230418,0.167991 -0.531369,0.556151 -0.684218,0.882491 l -0.27287,0.582591 -0.586078,-0.222691 c -0.322342,-0.122482 -0.600036,-0.207292 -0.617097,-0.188471 -0.02856,0.03151 0.28701,2.854153 0.47584,4.256141 0.04976,0.369446 0.02335,0.840179 -0.06864,1.223666 -0.12528,0.522223 -0.2862,0.766734 -0.992805,1.508515 -0.463811,0.4869 -0.928866,1.050754 -1.033456,1.253008 -0.278491,0.538541 -0.254166,1.600386 0.04348,1.898032 0.128505,0.128505 0.282546,0.233645 0.342312,0.233645 0.157242,0 -0.03397,0.590284 -0.385551,1.190208 -0.164663,0.280975 -0.310765,0.666966 -0.324673,0.857758 -0.04718,0.647215 0.01697,1.223062 0.136251,1.223062 0.06535,0 0.709328,-0.128014 1.431075,-0.284474 z M 56.565819,72.949766 c 0.231482,-0.267674 0.443527,-0.910312 0.443527,-1.344183 0,-0.281328 -0.03799,-0.330838 -0.204439,-0.266443 -1.272615,0.492334 -2.399051,-0.347537 -2.958977,-2.206215 -0.124453,-0.413125 0.03514,-0.651617 0.436059,-0.651617 0.401102,0 0.452601,-0.26558 0.211238,-1.089343 -0.282138,-0.962919 -0.466611,-1.315528 -1.031066,-1.970819 -0.437798,-0.508252 -0.491203,-0.537431 -0.676593,-0.369655 -0.265749,0.240498 -0.929931,0.231861 -1.309793,-0.01703 -0.297807,-0.19513 -0.306359,-0.192988 -0.419707,0.10514 -0.08999,0.23668 -0.19543,0.304329 -0.474358,0.304329 -0.33984,0 -0.355306,-0.01991 -0.294847,-0.379673 0.03509,-0.20882 0.114478,-0.714871 0.17641,-1.124559 0.06911,-0.457149 0.294704,-1.107541 0.584012,-1.683713 0.700752,-1.395577 0.607854,-1.82293 -0.41769,-1.921472 -1.103666,-0.106049 -1.742569,0.400494 -2.033201,1.611987 -0.242116,1.009251 -0.981319,1.369253 -2.399225,1.168452 -1.092031,-0.15465 -1.537307,-0.480981 -2.089239,-1.531151 -0.50645,-0.96363 -0.685286,-1.803713 -0.606116,-2.847233 0.03941,-0.519479 0.105223,-1.399197 0.146249,-1.954929 0.04805,-0.650912 0.02679,-1.147551 -0.05976,-1.395828 -0.129615,-0.371813 -0.114866,-0.405189 0.418159,-0.946354 0.322285,-0.327204 0.657911,-0.560947 0.805451,-0.560947 0.297707,0 0.566734,-0.281292 0.481489,-0.503438 -0.04537,-0.118236 0.227934,-0.19251 1.130207,-0.307143 1.141777,-0.145062 1.208762,-0.141166 1.651351,0.09605 0.571785,0.306459 0.780416,0.310241 1.044053,0.01892 0.173355,-0.191555 0.185675,-0.288415 0.07652,-0.601544 -0.192606,-0.552512 -0.159251,-0.640566 0.112016,-0.295706 0.27303,0.347101 0.596405,0.386932 1.082602,0.133352 0.216255,-0.11279 0.399256,-0.136886 0.525701,-0.06922 0.106681,0.05709 0.437881,0.140372 0.736,0.185072 0.512665,0.07687 0.697582,0.165541 1.429311,0.685361 0.291736,0.20725 0.321653,0.208073 0.613444,0.01688 0.323996,-0.21229 0.333833,-0.207352 0.635146,0.318831 0.06397,0.111718 0.24708,0.654365 0.406904,1.205882 0.374683,1.292956 0.659246,1.839757 1.050112,2.017849 0.7241,0.329921 0.940331,-0.105513 0.821672,-1.654646 -0.170739,-2.229076 -0.179597,-2.271675 -0.488531,-2.349212 -0.815838,-0.204763 -0.96881,-0.993159 -0.3664,-1.888378 0.323059,-0.480087 0.553866,-0.651895 1.547897,-1.152221 0.999043,-0.50285 1.223208,-0.670277 1.547897,-1.156112 0.20882,-0.312461 0.379673,-0.71749 0.379673,-0.900065 0,-0.202407 0.119492,-0.451446 0.306189,-0.638143 l 0.306191,-0.306191 -0.400437,-0.272103 c -0.347931,-0.236425 -0.397985,-0.331004 -0.381746,-0.721316 0.02069,-0.497279 0.447048,-1.559027 0.626047,-1.559027 0.06274,0 0.146569,0.05257 0.186279,0.116822 0.03971,0.06425 0.249278,0.116823 0.465706,0.116823 0.504438,0 0.920463,-0.474175 0.819466,-0.934011 -0.07751,-0.352919 0.06977,-0.453625 1.109688,-0.758766 1.114289,-0.326963 1.334431,-0.514751 1.404199,-1.197821 0.07058,-0.691073 0.316462,-1.015383 0.91717,-1.209737 0.657977,-0.212885 1.452618,-0.638964 1.697906,-0.910402 0.122399,-0.13545 0.33268,-0.247427 0.467289,-0.248838 0.327922,-0.0034 1.140139,-0.380346 1.339955,-0.621804 0.239523,-0.289441 0.196402,-0.792827 -0.08762,-1.02281 -0.136536,-0.110561 -0.248248,-0.28161 -0.248248,-0.380109 0,-0.0985 -0.116837,-0.260925 -0.259639,-0.360947 l -0.259638,-0.181858 h 0.292057 c 0.382706,0 0.811332,-0.306981 0.811332,-0.581075 0,-0.322502 -0.906808,-0.640133 -1.538945,-0.53905 -0.668043,0.106825 -1.582614,0.580318 -2.111755,1.093303 -0.499735,0.484475 -0.536572,0.44421 -0.19899,-0.217506 0.450612,-0.883272 1.444393,-1.331269 3.871853,-1.745435 1.510042,-0.257638 2.200936,-0.197521 2.810183,0.244522 l 0.320664,0.232659 0.654346,-0.643974 c 0.539406,-0.530856 0.793637,-0.685457 1.447331,-0.880136 0.436142,-0.129889 0.85347,-0.309039 0.927394,-0.398113 0.07393,-0.08907 0.165269,-0.42252 0.202987,-0.740989 0.0677,-0.571586 0.064,-0.579954 -0.287157,-0.650185 -0.418389,-0.08368 -0.82396,-0.481437 -0.91359,-0.895995 -0.123896,-0.573039 -0.160301,-0.633822 -0.297463,-0.496659 -0.09392,0.09391 -0.175018,0.08268 -0.299146,-0.04145 -0.126453,-0.126454 -0.31746,-0.150777 -0.741887,-0.09448 -1.034427,0.137221 -1.450305,-0.189008 -1.807557,-1.417911 -0.142016,-0.48852 -0.349078,-0.841079 -0.738154,-1.256834 -0.297422,-0.317818 -0.672193,-0.821322 -0.832824,-1.118899 -0.402834,-0.74627 -0.687062,-0.766662 -1.188486,-0.08527 -0.299815,0.407424 -0.46458,0.529139 -0.72105,0.532654 -0.182839,0.0025 -0.471974,0.102799 -0.642523,0.222874 -0.437033,0.307693 -0.850332,0.424905 -0.80952,0.229583 0.01768,-0.0846 -0.17814,-0.259415 -0.43515,-0.388477 -0.403604,-0.202676 -0.469619,-0.290383 -0.484384,-0.643536 -0.0455,-1.088417 -0.114662,-1.173632 -1.504789,-1.854161 -1.749472,-0.856445 -3.945426,-1.305939 -4.618974,-0.945467 -0.278791,0.149204 -0.298607,0.695202 -0.05073,1.397759 0.246161,0.697695 0.21941,1.023584 -0.116823,1.423174 -0.283675,0.337129 -0.377187,0.842973 -0.20265,1.096219 0.04721,0.06849 0.332029,0.292028 0.632941,0.496745 1.039185,0.70698 0.905361,1.139013 -0.697378,2.251405 -0.657928,0.45664 -0.805096,0.783164 -0.624563,1.385726 0.07619,0.254303 0.2749,0.624439 0.441578,0.822523 0.290519,0.345263 0.294582,0.369508 0.09827,0.586429 -0.112627,0.124452 -0.43106,0.335818 -0.707627,0.469702 -0.468612,0.22685 -0.526909,0.230985 -0.856187,0.06071 -0.445284,-0.230265 -0.924472,-1.040108 -1.19702,-2.022997 -0.115979,-0.418257 -0.290921,-0.882639 -0.388759,-1.031959 -0.214398,-0.327212 -0.995798,-0.560807 -1.603364,-0.479315 -0.374953,0.05029 -0.494251,0.0039 -0.848039,-0.329764 -0.233056,-0.219799 -0.830423,-0.553609 -1.376651,-0.769272 -0.83517,-0.329746 -1.140259,-0.387588 -2.268498,-0.430086 l -1.303552,-0.0491 -0.0777,-0.414187 c -0.08081,-0.430755 -0.624613,-1.079968 -0.904617,-1.079968 -0.13598,0 -0.137984,-0.158541 -0.01283,-1.015601 0.123375,-0.844886 0.218671,-1.114895 0.566923,-1.606309 1.362715,-1.922909 1.18676,-1.749855 1.744329,-1.715567 0.660219,0.0406 1.433205,-0.170974 1.891777,-0.517798 0.201921,-0.152716 0.62904,-0.712999 0.949154,-1.245074 0.718561,-1.194346 0.936416,-1.30453 1.809537,-0.915209 0.844413,0.376521 1.439702,0.437204 1.728144,0.176167 0.251282,-0.227407 0.306026,-0.856928 0.10688,-1.229036 -0.08455,-0.157977 -0.082,-0.298714 0.0085,-0.467754 0.103764,-0.193885 0.07565,-0.350117 -0.141918,-0.788552 -0.248578,-0.500933 -0.310488,-0.549602 -0.738609,-0.580646 -0.257009,-0.01864 -0.67757,0.04016 -0.93458,0.130657 -0.377665,0.132983 -0.464248,0.217903 -0.451436,0.442763 0.01993,0.349701 -0.781713,1.441815 -1.227564,1.672372 -0.451641,0.233553 -0.753708,0.01372 -0.999983,-0.727747 -0.227279,-0.684269 -0.48939,-1.075282 -0.720803,-1.075282 -0.09566,0 -0.308912,0.134992 -0.473903,0.299983 l -0.299983,0.299984 -0.265081,-0.24903 c -0.145794,-0.136967 -0.565221,-0.371017 -0.932058,-0.520111 -0.366839,-0.149094 -0.609586,-0.306551 -0.53944,-0.349904 0.26298,-0.162531 0.13022,-0.677443 -0.272625,-1.057374 -0.428281,-0.403921 -1.148046,-0.643175 -1.934913,-0.643175 -0.596138,0 -1.052772,0.400193 -1.052772,0.922645 0,0.426603 0.256009,0.623511 1.233642,0.948846 0.62632,0.208426 1.353814,0.725774 1.210354,0.860727 -0.02703,0.02542 -0.409252,0.208716 -0.849393,0.40732 l -0.800257,0.361097 0.08159,0.702953 c 0.05043,0.434543 0.03809,0.702954 -0.03232,0.702954 -0.106993,0 -0.483286,-0.780405 -0.664831,-1.378814 -0.0604,-0.199105 -0.119654,-0.237426 -0.228028,-0.147484 -0.08156,0.06769 -0.788773,0.128436 -1.596483,0.137137 -0.797537,0.0086 -1.720569,0.02239 -2.051185,0.03066 -0.7883,0.01973 -1.092806,-0.235034 -1.092806,-0.914279 0,-0.266326 0.05563,-0.539858 0.123618,-0.607848 0.08694,-0.08694 -0.05092,-0.269752 -0.464686,-0.616176 -0.667977,-0.559261 -0.513944,-0.568307 -2.287437,0.13433 -1.650805,0.65403 -3.576849,1.610176 -3.498589,1.736803 0.03636,0.05884 -0.05797,0.106979 -0.209627,0.106979 -0.30814,0 -1.972939,0.951919 -3.408843,1.949151 -3.015024,2.093925 -6.029297,4.985717 -8.283292,7.946712 -0.908135,1.192985 -1.714135,2.401639 -1.714135,2.570467 0,0.0871 0.181656,0.265552 0.403679,0.396548 0.315271,0.186014 0.425447,0.345056 0.503074,0.726201 0.09611,0.47188 0.113453,0.487198 0.524376,0.463067 0.471261,-0.02767 0.621994,0.184059 0.49402,0.693951 -0.05644,0.224868 -0.0085,0.308128 0.243491,0.422945 0.646651,0.294634 2.600054,1.657007 2.954217,2.060376 0.433554,0.493791 0.449197,0.626244 0.122946,1.041006 l -0.244853,0.311279 -0.460813,-0.416318 C 23.912856,36.534542 23.65505,36.378374 23.5934,36.416475 c -0.18937,0.117037 -0.124323,1.033495 0.105323,1.483933 0.119577,0.234545 0.175094,0.469084 0.123368,0.521196 -0.35289,0.355535 -0.472987,4.306561 -0.166021,5.461871 0.226726,0.853318 0.543741,1.384266 0.932182,1.561252 0.162209,0.07391 0.294926,0.216453 0.294926,0.316768 0,0.274437 0.379649,0.963679 0.979196,1.777699 0.389218,0.528453 0.810162,0.908665 1.533224,1.384866 1.068117,0.703449 1.352066,1.063782 1.811299,2.298557 0.137778,0.370453 0.377847,0.824888 0.533486,1.009854 0.15564,0.184967 0.282981,0.437503 0.282981,0.561191 0,0.123688 0.212363,0.509518 0.471916,0.857398 0.529086,0.709135 0.686146,1.140727 0.464885,1.277474 -0.244065,0.15084 0.035,0.490056 0.77676,0.94419 0.577417,0.353518 0.705989,0.496019 0.843223,0.93458 0.293978,0.939469 0.353115,1.043163 0.594917,1.043163 0.571838,0 0.140268,-1.412685 -1.033724,-3.38376 -0.441438,-0.741152 -0.892425,-1.523788 -1.002196,-1.739192 -0.229367,-0.450092 -0.544587,-1.445127 -0.478682,-1.511031 0.02443,-0.02443 0.285352,0.06216 0.579828,0.192419 0.493223,0.218176 0.53541,0.270029 0.53541,0.658086 0,0.702641 0.452067,1.406221 1.881037,2.927583 0.876141,0.932788 1.394208,1.694547 1.439155,2.116114 0.01926,0.180684 0.156324,0.351497 0.37038,0.461591 0.491636,0.252856 1.315885,1.084328 1.578283,1.592112 0.124416,0.240764 0.325237,0.930027 0.446271,1.531696 0.357224,1.775786 0.520661,1.977215 2.42066,2.983346 0.697631,0.369424 1.684529,0.900534 2.193108,1.180242 1.047194,0.575937 1.589694,0.644707 2.828014,0.358493 0.955329,-0.220806 1.263939,-0.08369 2.077211,0.922876 0.85411,1.057115 2.067896,1.639332 3.417625,1.639332 0.43495,0 0.623957,0.04613 0.623957,0.152281 0,0.08375 0.31634,0.687332 0.702978,1.341283 0.570142,0.964326 0.829521,1.280869 1.372663,1.675186 0.368327,0.267402 0.812353,0.618101 0.986723,0.779332 0.252012,0.233018 0.351088,0.264887 0.483044,0.155373 0.134212,-0.111386 0.179474,-0.08411 0.236335,0.142444 0.09561,0.380943 0.944808,1.127933 1.282263,1.127933 0.150488,0 0.353173,-0.092 0.450411,-0.20444 z"
     id="path703"
     inkscape:connector-curvature="0" />
  <path
     style="fill:#bc4f3e;fill-opacity:1;stroke-width:0.11682243"
     d="m 35.630841,19.514176 c -0.6422,-0.565069 -1.291558,-0.916045 -1.694821,-0.916045 -0.229166,0 -0.09404,-0.109661 0.558768,-0.453471 1.369282,-0.721147 2.267228,-1.013607 2.65857,-0.865892 0.232816,0.08788 0.364175,0.08688 0.454519,-0.0035 0.09154,-0.09154 0.225159,-0.0142 0.477916,0.27662 0.647351,0.744843 0.645468,0.752009 -0.203164,0.772937 -0.825493,0.02036 -1.723122,0.301169 -1.884505,0.589544 -0.06326,0.113049 -0.03816,0.306508 0.06717,0.517649 0.273143,0.547528 0.126073,0.575329 -0.434451,0.08213 z"
     id="path705"
     inkscape:connector-curvature="0" />
</svg>
